<svg width="24" height="24" viewBox="0 0 24 24" fill="none" xmlns="http://www.w3.org/2000/svg">
  <path d="M3.78 12.07L11.8 14.59C12.07 14.67 12.35 14.59 12.53 14.37L20.89 4.59C21.08 4.37 21.06 4.04 20.85 3.85C20.63 3.67 20.31 3.67 20.11 3.85L10.56 11.95C10.36 12.13 10.07 12.19 9.82 12.13L2.27 9.67C1.69 9.5 1.54 8.78 2 8.34L11.59 0C11.87 -0.206 12.19 0.0534 12.1 0.401L9.79 8.61C9.74 8.77 9.83 8.95 9.97 9L13.08 10.32C13.31 10.4 13.57 10.28 13.65 10.04L15.4 5.04C15.5 4.76 15.86 4.65 16.13 4.82C16.35 4.95 16.45 5.23 16.35 5.47L14.19 10.87C14.01 11.35 13.68 11.76 13.24 12.04L7.25 15.92C6.84 16.19 6.35 16.33 5.84 16.33L3.65 16.34C3.11 16.34 2.77 15.75 3.02 15.28L3.63 14.09C3.76 13.82 3.57 13.5 3.28 13.47L1.7 13.32C1.34 13.29 1.2 12.88 1.45 12.62L2.17 11.9C2.33 11.74 2.54 11.67 2.75 11.71L3.78 12.07Z" fill="#3B82F6"/>
  <path d="M16.93 17.2L12.96 21.41C12.59 21.8 11.96 21.6 11.81 21.1L10.02 14.81C9.91 14.46 10.25 14.14 10.6 14.27L11.89 14.71C12.4 14.89 12.96 14.84 13.42 14.56L16.11 13.01C16.12 13 16.13 13 16.14 13H18.38C18.79 13 19.05 13.44 18.86 13.79L16.93 17.2Z" fill="#3B82F6"/>
</svg>
